<?xml version="1.0" standalone="no"?>
<!DOCTYPE svg PUBLIC "-//W3C//DTD SVG 20010904//EN"
 "http://www.w3.org/TR/2001/REC-SVG-20010904/DTD/svg10.dtd">
<svg version="1.0"
   xmlns="http://www.w3.org/2000/svg" width="700pt" height="700pt" viewBox="0 0 700 700" preserveAspectRatio="xMidYMid meet">
   <g transform="translate(0,700) scale(0.1,-0.1)" fill="#000000" stroke="none">
      <path d="M1148 6995 c-2 -1 -127 -5 -278 -8 -241 -4 -282 -7 -330 -25 -228
-81 -409 -260 -496 -487 -24 -65 -27 -86 -33 -275 -8 -272 -8 -5080 1 -5375 7
-244 12 -276 68 -385 95 -188 287 -351 485 -412 62 -19 563 -23 2910 -23 2605
0 2837 2 2934 22 238 48 462 258 557 523 26 75 29 339 29 2980 0 2410 -3 2824
-23 2900 -29 111 -120 257 -218 351 -144 135 -282 198 -458 206 -109 5 -5142
13 -5148 8z m5352 -2169 c117 -28 121 -105 15 -316 -49 -97 -112 -199 -144
-233 -71 -77 -123 -84 -696 -92 -159 -2 -296 -4 -302 -4 -10 -1 -13 -202 -13
-970 l0 -970 -44 -44 c-66 -68 -87 -72 -351 -72 -221 0 -232 1 -277 23 -26 13
-61 41 -78 62 l-30 38 0 968 0 969 -1107 -1 c-1288 -2 -1426 -5 -1532 -40 -81
-27 -244 -117 -287 -159 -6 -5 -26 -24 -46 -41 -127 -111 -209 -290 -209 -459
-2 -257 165 -492 441 -622 168 -79 178 -81 465 -82 1243 -8 1576 -14 1617 -30
43 -17 76 -63 86 -121 6 -30 10 -130 9 -222 l-2 -166 -30 -44 c-54 -76 -19
-73 -825 -72 -679 0 -1097 7 -1185 19 -351 49 -720 221 -963 450 -76 72 -232
259 -232 279 0 3 -14 27 -30 53 -17 26 -48 92 -69 147 -119 307 -99 646 55
935 108 202 300 406 504 537 206 131 464 228 715 267 49 8 170 15 269 16 100
1 182 3 183 5 6 5 4070 -2 4093 -8z"/>
   </g>
</svg>
