<svg width="56" height="56" viewBox="0 0 56 56" fill="none" xmlns="http://www.w3.org/2000/svg">
   <path fill-rule="evenodd" clip-rule="evenodd"
      d="M27.6513 18.9452C26.3841 18.9585 25.1214 18.7904 23.9018 18.446C23.7943 18 23.6263 17.5708 23.4026 17.1702C21.428 13.5594 24.4565 10.7362 24.4565 10.7362C24.4565 10.7362 24.1847 13.1656 26.1537 13.0657C28.1228 12.9659 27.5071 11.1078 26.9802 9.68786C26.4533 8.26793 27.8011 6.20459 28.9104 5.60001C28.1949 6.98666 28.3557 8.10708 29.8589 9.83762C30.1391 10.1603 30.4155 10.459 30.6765 10.7411C31.815 11.9717 32.6591 12.8839 32.2439 14.0752C32.0437 14.656 31.6546 15.1312 31.2955 15.5699C30.5501 16.4802 29.9336 17.2333 31.4008 18.446C30.1812 18.7904 28.9186 18.9585 27.6513 18.9452ZM11.2 17.9079C11.211 19.1948 11.261 20.4982 11.383 21.7906L11.4163 22.1345C12.3037 30.7816 17.2624 38.8409 32.6099 44.9366C31.1998 46.0147 29.4352 46.5217 27.6678 46.3565C25.9941 46.3625 24.3552 45.8786 22.9532 44.9643C23.3816 44.7729 23.795 44.5722 24.2 44.3755C24.7808 44.0934 25.3442 43.8198 25.9096 43.5943C24.5063 42.9065 22.5539 41.8083 21.3503 41.0429C19.621 41.7448 17.8501 42.3394 16.0477 42.8233H16.02C16.1087 43.023 19.4311 50.4 27.6678 50.4C35.9878 50.4 39.3157 42.8178 39.3157 42.8178C39.3157 42.8178 22.3986 38.619 18.0334 27.964C17.6503 27.0732 17.3658 26.1432 17.1847 25.1906L19.7473 26.5218C19.3691 25.1505 19.1074 23.7496 18.9652 22.3341C17.5231 21.4744 15.848 20.4039 14.4114 19.4665L11.2 17.2479V17.9079ZM34.4568 18.9451C35.0447 31.1588 27.6677 35.1357 27.6677 35.1357C27.6677 35.1357 20.2796 31.1588 20.8731 18.9451C23.4689 21.1305 27.6677 20.9641 27.6677 20.9641C27.6677 20.9641 31.8609 21.1305 34.4568 18.9451ZM37.5019 27.437C36.0764 31.3585 32.9537 34.4424 29.4981 36.772C30.882 37.5372 32.3058 38.2278 33.7635 38.8409C42.8765 32.6952 44.1356 25.0853 44.1356 17.2479C44.1356 17.2479 39.6983 20.2542 36.3704 22.2398C36.2307 23.6585 35.9728 25.0629 35.5994 26.4386L38.2063 25.0575C37.8812 26.3788 37.571 27.2441 37.5099 27.4145L37.5099 27.4145L37.5019 27.437Z"
      fill="#fff" />
</svg>