<svg width="12" height="16" viewBox="0 0 12 16" fill="none" xmlns="http://www.w3.org/2000/svg">
   <path
      d="M11.1556 9.49196L9.85123 10.8494C9.37691 11.3425 8.71535 11.6233 8.02258 11.6233H4.14996C3.75677 11.6233 3.36982 11.5328 3.01719 11.3581C2.13095 10.9181 1.45067 10.1629 1.11677 9.24543L0.573787 7.7538C0.483291 7.50415 0.555064 7.22642 0.75478 7.04855L3.12017 4.96089L2.51166 6.12798C2.32443 6.48373 2.33379 6.90813 2.5335 7.26075L2.90797 7.91919C3.01095 8.10018 3.26684 8.12827 3.40726 7.96912L5.34825 5.78784C5.53861 5.57564 5.60726 5.28231 5.53237 5.0077L4.78655 2.32089L6.88357 0.666992L6.24386 2.11181C6.13152 2.36458 6.1752 2.65791 6.35308 2.87011L9.07421 6.08118C9.27705 6.32146 9.31137 6.6616 9.15535 6.93309L8.48442 8.11579C8.3752 8.30926 8.53435 8.5433 8.75903 8.51834L9.95109 8.38415C10.1851 8.35919 10.3599 8.16259 10.3599 7.93167V6.74274L11.2773 8.79295C11.3866 9.03011 11.3366 9.30472 11.1556 9.49196ZM0.626837 11.1802C1.99989 16.7223 10.0447 16.7129 11.4022 11.1677L11.4552 10.9586L10.182 12.1694C9.6796 12.6468 9.00556 12.9152 8.30343 12.9152H4.03762C3.49152 12.9152 2.9579 12.7529 2.50854 12.4503L0.626837 11.1802Z"
      fill="#fff" />
</svg>