<svg width="433" height="69" viewBox="0 0 433 69" fill="none" xmlns="http://www.w3.org/2000/svg">
   <path
      d="M13.459 28.0771C13.4591 19.2765 19.8612 12.1426 27.7588 12.1426H44.1905C45.847 12.1423 47.1902 10.7991 47.1905 9.14258V3.00098C47.1905 1.34428 45.8471 0.00122826 44.1905 0.000976562H27.7588C12.4281 0.000995331 0.000160005 12.5711 0 28.0771C0 43.5833 12.428 56.1543 27.7588 56.1543L44.1905 56.1543C45.847 56.1541 47.1902 54.8108 47.1905 53.1543V47.0127C47.1905 45.356 45.8471 44.013 44.1905 44.0127L27.7588 44.0127C19.8611 44.0127 13.459 36.878 13.459 28.0771Z"
      fill="white" />
   <path
      d="M71.5 53.3057C71.5 54.9625 70.1568 56.3057 68.5 56.3057H61.041C59.3842 56.3056 58.041 54.9625 58.041 53.3057L58.0412 34.148H27.3937C25.737 34.1478 24.3937 32.8048 24.3937 31.148V25.0064C24.3939 23.3499 25.7372 22.0066 27.3937 22.0064H58.0412L58.041 3C58.0412 1.34337 59.3843 8.81201e-05 61.041 0H68.5C70.1567 0 71.4998 1.34332 71.5 3V53.3057Z"
      fill="#0DBDFF" />
   <path
      d="M82.3438 47.7969C82.3438 43.8906 84.209 41.0586 87.9395 39.3008C91.6699 37.543 95.9277 36.6055 100.713 36.4883V35.3164C100.713 33.5195 100.264 32.25 99.3652 31.5078C98.4668 30.7656 97.2168 30.3945 95.6152 30.3945C94.4824 30.3945 93.4766 30.5605 92.5977 30.8926C91.7383 31.2051 90.9863 31.5762 90.3418 32.0059C89.7168 32.416 89.1504 32.8359 88.6426 33.2656C87.7441 34.0469 87.002 34.0859 86.416 33.3828L83.9844 30.3945C83.3789 29.6523 83.5254 28.8906 84.4238 28.1094C85.1074 27.5039 85.8984 26.9766 86.7969 26.5273C87.7148 26.0781 88.9258 25.6582 90.4297 25.2676C91.9336 24.8574 93.8867 24.6523 96.2891 24.6523C100.352 24.6523 103.467 25.5898 105.635 27.4648C107.822 29.3398 108.916 32.1035 108.916 35.7559V54.2422C108.916 55.4141 108.33 56 107.158 56H102.354C101.299 56 100.771 55.4141 100.771 54.2422V53.3633H100.713C99.5605 54.4766 98.1738 55.2969 96.5527 55.8242C94.9512 56.332 93.4766 56.5859 92.1289 56.5859C88.9258 56.5859 86.4941 55.8047 84.834 54.2422C83.1738 52.6602 82.3438 50.5117 82.3438 47.7969ZM91.0156 47.6211C91.0156 48.3047 91.1523 48.9004 91.4258 49.4082C91.6992 49.8965 92.1289 50.2578 92.7148 50.4922C93.3008 50.7266 93.9551 50.8438 94.6777 50.8438C95.6738 50.8438 96.6406 50.707 97.5781 50.4336C98.5156 50.1602 99.5605 49.5156 100.713 48.5V42.1426C97.4316 42.5137 95.2344 42.9922 94.1211 43.5781C93.0078 44.1641 92.207 44.7695 91.7188 45.3945C91.25 46.0195 91.0156 46.7617 91.0156 47.6211ZM118.672 56C117.5 56 116.914 55.4141 116.914 54.2422V19.6426C116.914 18.7637 117.119 17.9629 117.529 17.2402L119.785 13.2852C120.215 12.543 120.723 12.1719 121.309 12.1719H123.359C124.531 12.1719 125.117 12.7578 125.117 13.9297V54.2422C125.117 55.4141 124.531 56 123.359 56H118.672ZM134.844 56C133.672 56 133.086 55.4141 133.086 54.2422V19.6426C133.086 18.7637 133.291 17.9629 133.701 17.2402L135.957 13.2852C136.387 12.543 136.895 12.1719 137.48 12.1719H139.531C140.703 12.1719 141.289 12.7578 141.289 13.9297V54.2422C141.289 55.4141 140.703 56 139.531 56H134.844ZM147.617 40.6191C147.617 35.6777 148.848 31.7812 151.309 28.9297C153.789 26.0781 157.285 24.6523 161.797 24.6523C167.031 24.6523 170.918 26 173.457 28.6953C175.996 31.3906 177.266 35.7266 177.266 41.7031C177.266 42.875 176.719 43.4609 175.625 43.4609H156.289C156.602 46.7031 157.402 48.7441 158.691 49.584C159.98 50.4238 161.475 50.8438 163.174 50.8438C164.795 50.8438 166.035 50.6289 166.895 50.1992C167.754 49.7695 168.477 49.1836 169.062 48.4414C169.727 47.582 170.547 47.4453 171.523 48.0312L174.453 49.8184C175.605 50.5215 175.771 51.3613 174.951 52.3379C173.76 53.7637 172.363 54.8281 170.762 55.5312C169.16 56.2344 166.631 56.5859 163.174 56.5859C157.568 56.5859 153.574 55.1602 151.191 52.3086C148.809 49.457 147.617 45.5605 147.617 40.6191ZM156.318 37.6016H169.062C169.062 35.4922 168.535 33.7734 167.48 32.4453C166.426 31.0977 164.746 30.4238 162.441 30.4238C160.605 30.4238 159.15 31.0684 158.076 32.3574C157.002 33.627 156.416 35.375 156.318 37.6016ZM185.41 56C184.238 56 183.652 55.4141 183.652 54.2422V26.9961C183.652 25.8242 184.238 25.2383 185.41 25.2383H190.039C191.211 25.2383 191.797 25.8242 191.797 26.9961V28.6953H191.914C192.812 27.1523 193.955 26.0977 195.342 25.5312C196.729 24.9453 198.398 24.6523 200.352 24.6523C203.398 24.6523 205.918 25.6094 207.91 27.5234C209.902 29.4375 210.898 32.9336 210.898 38.0117V54.2422C210.898 55.4141 210.312 56 209.141 56H204.453C203.281 56 202.695 55.4141 202.695 54.2422V40.1211C202.695 35.8633 202.402 33.1777 201.816 32.0645C201.23 30.9512 199.971 30.3945 198.037 30.3945C195.986 30.3945 194.443 31.1953 193.408 32.7969C192.373 34.3789 191.855 37.6797 191.855 42.6992V54.2422C191.855 55.4141 191.27 56 190.098 56H185.41ZM217.168 40.6191C217.168 36.3223 218.096 32.5918 219.951 29.4277C221.826 26.2441 225.059 24.6523 229.648 24.6523C231.406 24.6523 232.91 24.9063 234.16 25.4141C235.41 25.9219 236.543 27.0156 237.559 28.6953H237.676L237.793 26.9961C237.871 25.8242 238.398 25.2383 239.375 25.2383H244.004C245.176 25.2383 245.762 25.8242 245.762 26.9961V55.6777C245.762 60.4629 244.473 63.7637 241.895 65.5801C239.316 67.3965 235.586 68.3047 230.703 68.3047C228.633 68.3047 226.719 68.1973 224.961 67.9824C223.203 67.7676 221.426 67.2305 219.629 66.3711C218.691 65.9219 218.535 65.0723 219.16 63.8223L220.215 61.7129C220.645 60.8535 221.357 60.6582 222.354 61.127C223.154 61.498 224.141 61.8301 225.312 62.123C226.504 62.416 228.008 62.5625 229.824 62.5625C232.324 62.5625 234.238 62.0938 235.566 61.1562C236.895 60.2383 237.559 58.2168 237.559 55.0918V54.5938C237.559 53.8125 237.598 53.0312 237.676 52.25H237.559C236.543 53.9297 235.41 55.0234 234.16 55.5312C232.91 56.0391 231.406 56.293 229.648 56.293C225.059 56.293 221.826 54.7109 219.951 51.5469C218.096 48.3633 217.168 44.7207 217.168 40.6191ZM225.84 40.6191C225.84 43.5488 226.24 45.9414 227.041 47.7969C227.861 49.6328 229.59 50.5508 232.227 50.5508C233.691 50.5508 234.941 49.7305 235.977 48.0898C237.031 46.4297 237.559 44.2812 237.559 41.6445V39.3008C237.559 36.6641 237.031 34.5254 235.977 32.8848C234.941 31.2246 233.691 30.3945 232.227 30.3945C229.59 30.3945 227.861 31.3223 227.041 33.1777C226.24 35.0137 225.84 37.4941 225.84 40.6191ZM252.09 40.6191C252.09 35.6777 253.32 31.7812 255.781 28.9297C258.262 26.0781 261.758 24.6523 266.27 24.6523C271.504 24.6523 275.391 26 277.93 28.6953C280.469 31.3906 281.738 35.7266 281.738 41.7031C281.738 42.875 281.191 43.4609 280.098 43.4609H260.762C261.074 46.7031 261.875 48.7441 263.164 49.584C264.453 50.4238 265.947 50.8438 267.646 50.8438C269.268 50.8438 270.508 50.6289 271.367 50.1992C272.227 49.7695 272.949 49.1836 273.535 48.4414C274.199 47.582 275.02 47.4453 275.996 48.0312L278.926 49.8184C280.078 50.5215 280.244 51.3613 279.424 52.3379C278.232 53.7637 276.836 54.8281 275.234 55.5312C273.633 56.2344 271.104 56.5859 267.646 56.5859C262.041 56.5859 258.047 55.1602 255.664 52.3086C253.281 49.457 252.09 45.5605 252.09 40.6191ZM260.791 37.6016H273.535C273.535 35.4922 273.008 33.7734 271.953 32.4453C270.898 31.0977 269.219 30.4238 266.914 30.4238C265.078 30.4238 263.623 31.0684 262.549 32.3574C261.475 33.627 260.889 35.375 260.791 37.6016ZM287.51 53.9492C286.553 53.2656 286.289 52.5332 286.719 51.752L288.213 49.0273C288.74 48.0508 289.561 47.9336 290.674 48.6758C291.787 49.418 293.096 49.9648 294.6 50.3164C296.123 50.668 297.51 50.8438 298.76 50.8438C299.639 50.8438 300.459 50.7559 301.221 50.5801C301.982 50.4043 302.627 50.0625 303.154 49.5547C303.682 49.0469 303.945 48.3047 303.945 47.3281C303.945 46.7422 303.789 46.2441 303.477 45.834C303.164 45.4238 302.764 45.1113 302.275 44.8965C301.787 44.6816 301.27 44.5059 300.723 44.3691C300 44.1934 298.955 43.9004 297.588 43.4902C296.24 43.0801 294.941 42.6016 293.691 42.0547C292.656 41.6055 291.641 40.9805 290.645 40.1797C289.668 39.3594 288.945 38.4512 288.477 37.4551C288.027 36.459 287.803 35.2285 287.803 33.7637C287.803 31.791 288.369 30.0625 289.502 28.5781C290.654 27.0938 292.139 26.0684 293.955 25.502C295.771 24.9355 298.037 24.6523 300.752 24.6523C302.588 24.6523 304.375 24.916 306.113 25.4434C307.852 25.9707 309.092 26.4688 309.834 26.9375C311.006 27.6797 311.299 28.4707 310.713 29.3105L308.926 31.918C308.379 32.6992 307.5 32.7578 306.289 32.0938C305.371 31.5859 304.463 31.1758 303.564 30.8633C302.686 30.5508 301.699 30.3945 300.605 30.3945C299.863 30.3945 299.15 30.4727 298.467 30.6289C297.783 30.7852 297.197 31.0781 296.709 31.5078C296.24 31.9375 296.006 32.5039 296.006 33.207C296.006 33.9492 296.221 34.5352 296.65 34.9648C297.1 35.375 297.607 35.6777 298.174 35.873C298.76 36.0684 299.316 36.2539 299.844 36.4297C300.938 36.7812 302.041 37.123 303.154 37.4551C304.268 37.7676 305.4 38.1484 306.553 38.5977C307.549 38.9883 308.516 39.5449 309.453 40.2676C310.391 40.9902 311.074 41.9082 311.504 43.0215C311.934 44.1348 312.148 45.4043 312.148 46.8301C312.148 48.7246 311.582 50.4824 310.449 52.1035C309.316 53.7246 307.822 54.877 305.967 55.5605C304.111 56.2441 301.953 56.5859 299.492 56.5859C296.738 56.5859 294.395 56.3906 292.461 56C290.527 55.6094 288.877 54.9258 287.51 53.9492ZM335.703 34.9941C335.703 28.2559 337.461 22.9043 340.977 18.9395C344.492 14.9746 349.473 12.9922 355.918 12.9922C359.805 12.9922 362.852 13.4902 365.059 14.4863C367.285 15.4824 369.238 17.0254 370.918 19.1152C371.934 20.3848 371.904 21.3711 370.83 22.0742L367.49 24.2422C366.514 24.8867 365.469 24.6035 364.355 23.3926C363.438 22.3965 362.275 21.5664 360.869 20.9023C359.463 20.2383 357.91 19.9062 356.211 19.9062C352.109 19.9062 349.189 21.2051 347.451 23.8027C345.713 26.3809 344.844 30.1113 344.844 34.9941C344.844 39.877 345.713 43.6172 347.451 46.2148C349.189 48.793 352.109 50.082 356.211 50.082C358.203 50.082 359.922 49.8867 361.367 49.4961C362.812 49.0859 364.18 48.3535 365.469 47.2988V42.0547H359.111C357.646 42.0547 356.914 41.4199 356.914 40.1504V36.6934C356.914 35.4238 357.646 34.7891 359.111 34.7891H371.826C373.291 34.7891 374.023 35.4238 374.023 36.6934V51.5762C371.289 53.5879 368.525 54.9941 365.732 55.7949C362.959 56.5957 359.688 56.9961 355.918 56.9961C349.57 56.9961 344.609 55.0137 341.035 51.0488C337.48 47.084 335.703 41.7324 335.703 34.9941ZM379.824 34.9941C379.824 28.2559 381.582 22.9043 385.098 18.9395C388.613 14.9746 393.594 12.9922 400.039 12.9922C403.926 12.9922 406.973 13.4902 409.18 14.4863C411.406 15.4824 413.359 17.0254 415.039 19.1152C416.055 20.3848 416.025 21.3711 414.951 22.0742L411.611 24.2422C410.635 24.8867 409.59 24.6035 408.477 23.3926C407.559 22.3965 406.396 21.5664 404.99 20.9023C403.584 20.2383 402.031 19.9062 400.332 19.9062C396.23 19.9062 393.311 21.2051 391.572 23.8027C389.834 26.3809 388.965 30.1113 388.965 34.9941C388.965 39.877 389.834 43.6172 391.572 46.2148C393.311 48.793 396.23 50.082 400.332 50.082C402.324 50.082 404.043 49.8867 405.488 49.4961C406.934 49.0859 408.301 48.3535 409.59 47.2988V42.0547H403.232C401.768 42.0547 401.035 41.4199 401.035 40.1504V36.6934C401.035 35.4238 401.768 34.7891 403.232 34.7891H415.947C417.412 34.7891 418.145 35.4238 418.145 36.6934V51.5762C415.41 53.5879 412.646 54.9941 409.854 55.7949C407.08 56.5957 403.809 56.9961 400.039 56.9961C393.691 56.9961 388.73 55.0137 385.156 51.0488C381.602 47.084 379.824 41.7324 379.824 34.9941Z"
      fill="white" />
   <path
      d="M321.172 56C319.805 56 319.121 55.2676 319.121 53.8027V49.877C319.121 48.4121 319.805 47.6797 321.172 47.6797H325.625C326.992 47.6797 327.676 48.4121 327.676 49.877V53.8027C327.676 55.2676 326.992 56 325.625 56H321.172Z"
      fill="#0DBDFF" />
</svg>