<svg width="100" height="100" viewBox="0 0 100 100" fill="none" xmlns="http://www.w3.org/2000/svg">
   <rect width="100" height="100" rx="8" fill="#1C1C26" />
   <path
      d="M27.459 50.0771C27.4591 41.2765 33.8612 34.1426 41.7588 34.1426H58.1905C59.847 34.1423 61.1902 32.7991 61.1905 31.1426V25.001C61.1905 23.3443 59.8471 22.0012 58.1905 22.001H41.7588C26.4281 22.001 14.0002 34.5711 14 50.0771C14 65.5833 26.428 78.1543 41.7588 78.1543L58.1905 78.1543C59.847 78.1541 61.1902 76.8108 61.1905 75.1543V69.0127C61.1905 67.356 59.8471 66.013 58.1905 66.0127L41.7588 66.0127C33.8611 66.0127 27.459 58.878 27.459 50.0771Z"
      fill="white" />
   <path
      d="M85.5 75.3057C85.5 76.9625 84.1568 78.3057 82.5 78.3057H75.041C73.3842 78.3056 72.041 76.9625 72.041 75.3057L72.0412 56.148H41.3937C39.737 56.1478 38.3937 54.8048 38.3937 53.148V47.0064C38.3939 45.3499 39.7372 44.0066 41.3937 44.0064H72.0412L72.041 25C72.0412 23.3434 73.3843 22.0001 75.041 22H82.5C84.1567 22 85.4998 23.3433 85.5 25V75.3057Z"
      fill="#0DBDFF" />
</svg>