<?xml version="1.0" standalone="no"?>
<!DOCTYPE svg PUBLIC "-//W3C//DTD SVG 20010904//EN"
        "http://www.w3.org/TR/2001/REC-SVG-20010904/DTD/svg10.dtd">
<svg version="1.0" xmlns="http://www.w3.org/2000/svg" width="100%" height="100%" viewBox="0 0 512 512"
     preserveAspectRatio="xMidYMid meet">
    <g>
        <rect width="460" height="460" x="26" y="26" fill="white"/>
    </g>
    <g transform="translate(0,512) scale(0.1,-0.1)"
       fill="#0dbdff" stroke="none">
        <path d="M433 5105 c-203 -55 -365 -219 -418 -422 -23 -86 -23 -4160 0 -4246
53 -205 217 -369 422 -422 86 -23 4160 -23 4246 0 205 53 369 217 422 422 23
86 23 4160 0 4246 -53 205 -217 369 -422 422 -83 22 -4169 21 -4250 0z m4330
-1576 c52 -14 73 -59 53 -116 -31 -89 -126 -261 -160 -291 -59 -52 -84 -55
-423 -59 l-313 -4 0 -709 0 -709 -31 -35 c-42 -48 -78 -56 -254 -56 -176 0
-212 8 -254 56 l-31 35 0 709 0 710 -907 0 c-1004 0 -971 2 -1108 -65 -333
-161 -416 -526 -175 -771 74 -76 150 -122 271 -166 l64 -23 680 -5 c654 -5
681 -6 709 -25 47 -31 56 -69 56 -223 0 -128 -2 -142 -23 -173 -41 -62 -32
-61 -757 -56 -720 4 -739 6 -940 69 -407 129 -699 424 -766 776 -103 539 368
1054 1036 1131 114 13 3226 13 3273 0z"/>
    </g>
</svg>
